<svg xmlns="http://www.w3.org/2000/svg" viewBox="0 0 100 100" fill="#383838"><path d="M90.735 35.343c.003-1.401-.156-2.776-.597-4.104-1.283-3.877-3.44-7.092-7.057-9.182-8.4-4.852-16.809-9.691-25.19-14.575-2.278-1.329-4.706-1.995-7.315-2.066-2.875-.076-5.608.444-8.138 1.914-8.461 4.908-16.972 9.736-25.395 14.711C12.022 25.01 9.38 29.57 9.318 35.4c-.103 9.744-.024 19.488-.032 29.234-.001 1.5.185 2.968.682 4.383 1.325 3.768 3.466 6.892 7.009 8.931 8.335 4.802 16.673 9.601 24.98 14.448 2.182 1.273 4.482 2.027 6.989 2.164 3.063.168 5.977-.329 8.675-1.896 8.403-4.877 16.81-9.75 25.242-14.58 2.352-1.35 4.167-3.184 5.548-5.479 1.332-2.215 2.271-4.58 2.294-7.196.043-5.134.013-10.269.013-15.402h.013c-.001-4.888-.005-9.778.004-14.664zm-43.733 28.05l-3.578 3.577c-1.656 1.657-3.833 2.485-6.01 2.485s-4.353-.828-6.01-2.485l-5.374-5.374a8.45 8.45 0 0 1-2.49-6.011 8.44 8.44 0 0 1 2.491-6.01l11.029-11.03c1.605-1.605 3.74-2.49 6.011-2.49s4.405.885 6.011 2.49l5.373 5.373a8.484 8.484 0 0 1 1.867 9.207 2.5 2.5 0 1 1-4.633-1.881 3.492 3.492 0 0 0-.77-3.791l-5.374-5.373c-1.322-1.322-3.628-1.322-4.95 0l-11.03 11.031c-.661.661-1.025 1.539-1.025 2.474s.364 1.814 1.026 2.476l5.373 5.374a3.506 3.506 0 0 0 4.949 0l3.578-3.577a2.498 2.498 0 0 1 3.535 0c.978.976.978 2.559.001 3.535zM73.97 50.426L62.938 61.455c-1.605 1.605-3.74 2.49-6.011 2.49s-4.404-.885-6.009-2.491l-5.375-5.371a8.486 8.486 0 0 1-1.866-9.209 2.5 2.5 0 0 1 4.633 1.881 3.492 3.492 0 0 0 .77 3.792l5.375 5.372c1.322 1.325 3.627 1.321 4.948.001l11.031-11.029a3.506 3.506 0 0 0-.001-4.951l-5.372-5.373c-1.322-1.322-3.629-1.321-4.949-.001l-3.58 3.579a2.501 2.501 0 0 1-3.535-3.537l3.579-3.577a8.444 8.444 0 0 1 6.01-2.489c2.271 0 4.405.885 6.011 2.49l5.373 5.373c3.314 3.315 3.313 8.707 0 12.021z" /></svg>
