<svg xmlns="http://www.w3.org/2000/svg" viewBox="10 10 100.002 100"><path d="M17.89 20.53h28.95v2.63H17.89zm0 5.26h28.95v2.63H17.89zm13.16 13.16h44.74v2.63H31.05zm-13.16 5.26h10.53V33.68H17.89zm2.63-7.89h5.26v5.26h-5.25zM17.89 60h10.53V49.47H17.89zm2.63-7.89h5.26v5.26h-5.25zm-2.63 23.68h10.53V65.26H17.89zm2.63-7.89h5.26v5.26h-5.25zm-2.63 15.78h57.89v2.63H17.89zm0 7.9h36.84v2.63H17.89zm13.16-21.05h25.08v2.63H31.05zm44.74 0h-1.41l-2.63 2.63h4.04v-2.63zm-4.23-15.79H31.05v2.63h37.88l2.63-2.63z"/><path d="M81.05 107.37H12.63V12.63h68.42v32.62l2.63-2.63V10H10v100h73.68V61.22l-2.63 2.64v43.51z"/><path d="M108.46 27.14a5.27 5.27 0 0 0-7.44 0L60.08 68.08l-2.63 2.63v7.44h7.44l2.63-2.63 14.89-14.88 1.86-1.86 24.19-24.19a5.27 5.27 0 0 0 0-7.45zM63.8 75.52h-3.72V71.8l16.75-16.74 3.72 3.72zm42.8-42.8l-24.19 24.2-3.72-3.72L102.88 29a2.63 2.63 0 1 1 3.72 3.72z"/></svg>
