<svg xmlns="http://www.w3.org/2000/svg" viewBox="23.025 23.998 53.947 52.003" fill="#efc45b"><path d="M34.37 75.993a1.99 2.01 0 0 1-1.817-2.202l1.718-16.11-10.74-12.008a1.99 2.01 0 0 1 1.058-3.302l15.663-3.335 8.03-14.042a1.99 2.01 0 0 1 3.436 0l8.03 14.042L75.41 42.37a1.99 2.01 0 0 1 1.057 3.302L65.727 57.68l1.686 16.11a1.99 2.01 0 0 1-2.776 2.035L50 69.222l-14.638 6.604a1.99 2.01 0 0 1-.992.167zm2.512-5.27l12.292-5.537a1.99 2.01 0 0 1 1.619 0l12.325 5.537-1.453-13.509a1.99 2.01 0 0 1 .495-1.567l9.021-10.074-13.151-2.801a1.99 2.01 0 0 1-1.322-.968L50 30.03l-6.708 11.774a1.99 2.01 0 0 1-1.322.968l-13.15 2.801 8.988 10.074a1.99 2.01 0 0 1 .495 1.567l-1.42 13.509z"/></svg>
