<svg xmlns="http://www.w3.org/2000/svg" fill="#a28a4c" viewBox="23.02 24 53.95 52">
  <path d="M34.37 76a1.99 2.01 0 0 1-1.82-2.2l1.72-16.12-10.74-12a1.99 2.01 0 0 1 1.06-3.3l15.66-3.34 8.03-14.05a1.99 2.01 0 0 1 3.44 0l8.03 14.05 15.66 3.33a1.99 2.01 0 0 1 1.06 3.3L65.73 57.68l1.68 16.11a1.99 2.01 0 0 1-2.77 2.03L50 69.22l-14.64 6.6a1.99 2.01 0 0 1-.99.17zm2.51-5.28 12.3-5.53a1.99 2.01 0 0 1 1.61 0l12.33 5.53-1.46-13.5a1.99 2.01 0 0 1 .5-1.57l9.02-10.08-13.15-2.8a1.99 2.01 0 0 1-1.32-.97L50 30.03 43.3 41.8a1.99 2.01 0 0 1-1.33.97l-13.15 2.8 8.99 10.08a1.99 2.01 0 0 1 .5 1.56l-1.43 13.51z"/>
</svg>
