<svg xmlns="http://www.w3.org/2000/svg" viewBox="0 0 162 162" fill="#383838"><path d="M81 24.306s-50.652 0-63.284 3.385a20.286 20.286 0 0 0-14.32 14.32C.01 54.644.01 81 .01 81s0 26.357 3.385 38.987a20.285 20.285 0 0 0 14.32 14.32C30.348 137.692 81 137.694 81 137.694s50.651-.001 63.284-3.387a20.284 20.284 0 0 0 14.32-14.32c3.386-12.632 3.385-38.99 3.385-38.99s0-26.352-3.384-38.986a20.285 20.285 0 0 0-14.32-14.32C131.651 24.306 81 24.306 81 24.306zM64.805 56.702L106.883 81l-42.08 24.297z"/></svg>
